<svg xmlns="http://www.w3.org/2000/svg" version="1.1" xmlns:xlink="http://www.w3.org/1999/xlink" xmlns:svgjs="http://svgjs.dev/svgjs" width="1440" height="560" preserveAspectRatio="none" viewBox="0 0 1440 560"><g mask="url(&quot;#SvgjsMask1005&quot;)" fill="none"><rect width="1440" height="560" x="0" y="0" fill="#0e2a47"></rect><path d="M1405.08 288.45L1405.41 288.45L1405.41 288.78L1405.08 288.78z" fill="#037b0b"></path><path d="M1063.94 362.29 a6.04 6.04 0 1 0 12.08 0 a6.04 6.04 0 1 0 -12.08 0z" stroke="#d3b714"></path><path d="M1430.7 352.31a26.74 26.74 0 1 0-9.11 52.7z" fill="#d3b714"></path><path d="M1054.07 159.3a42.23 42.23 0 1 0 23.32 81.17z" fill="#e73635"></path><path d="M831.89 220.32 a31.94 31.94 0 1 0 63.88 0 a31.94 31.94 0 1 0 -63.88 0z" fill="#037b0b"></path><path d="M205.46 321.71L208.2 321.71L208.2 342.35L205.46 342.35z" stroke="#037b0b"></path><path d="M506.66 226.76 a47.76 47.76 0 1 0 95.52 0 a47.76 47.76 0 1 0 -95.52 0z" stroke="#037b0b"></path><path d="M621.16 293.04 a27.78 27.78 0 1 0 55.56 0 a27.78 27.78 0 1 0 -55.56 0z" fill="#d3b714"></path><path d="M1169.19 182.07L1189.63 182.07L1189.63 202.51L1169.19 202.51z" fill="#037b0b"></path><path d="M914.97 108.42L951.08 108.42L951.08 144.53L914.97 144.53z" fill="#037b0b"></path><path d="M927.62 465.63a47.64 47.64 0 1 0-70.19-64.43z" fill="#d3b714"></path><path d="M695.51 141.43 a45.55 45.55 0 1 0 91.1 0 a45.55 45.55 0 1 0 -91.1 0z" fill="#037b0b"></path><path d="M663.37 569.85a33.56 33.56 0 1 0 5.22-66.91z" stroke="#037b0b"></path><path d="M1078.13 81.16 a51.29 51.29 0 1 0 102.58 0 a51.29 51.29 0 1 0 -102.58 0z" fill="#d3b714"></path><path d="M64.3 246.84L75.09 246.84L75.09 257.63L64.3 257.63z" fill="#037b0b"></path><path d="M668.69 144.47a47.26 47.26 0 1 0 37.7 86.68z" stroke="#037b0b"></path><path d="M932.24 527.36L961.91 527.36L961.91 557.03L932.24 557.03z" fill="#037b0b"></path><path d="M966.71 126.43L1010.7 126.43L1010.7 170.42L966.71 170.42z" fill="#e73635"></path><path d="M1106.41 402.6L1141.75 402.6L1141.75 437.94L1106.41 437.94z" stroke="#d3b714"></path><path d="M807.48 371.56 a39.74 39.74 0 1 0 79.48 0 a39.74 39.74 0 1 0 -79.48 0z" fill="#d3b714"></path><path d="M933.62 363.63a7.94 7.94 0 1 0 13.74-7.96z" fill="#037b0b"></path><path d="M830.01 53.07a44.13 44.13 0 1 0-81.98 32.69z" stroke="#037b0b"></path><path d="M382.95 112.83L396.67 112.83L396.67 163.81L382.95 163.81z" stroke="#037b0b"></path><path d="M21.92 159.77 a36.61 36.61 0 1 0 73.22 0 a36.61 36.61 0 1 0 -73.22 0z" fill="#037b0b"></path><path d="M499.55 25.91a24.06 24.06 0 1 0-44.71-17.79z" stroke="#e73635"></path><path d="M1116.98 409.03a51.3 51.3 0 1 0-35.49 96.26z" stroke="#e73635"></path><path d="M804.09 261.5L814.87 261.5L814.87 272.28L804.09 272.28z" stroke="#e73635"></path><path d="M705.16 141.71L717.83 141.71L717.83 175.62L705.16 175.62z" stroke="#e73635"></path><path d="M607.65 413.36L643.96 413.36L643.96 449.67L607.65 449.67z" fill="#d3b714"></path><path d="M1168.2 352.37 a53.22 53.22 0 1 0 106.44 0 a53.22 53.22 0 1 0 -106.44 0z" fill="#037b0b"></path><path d="M622.68 67.18a48.82 48.82 0 1 0-49.52 84.16z" stroke="#d3b714"></path><path d="M383.11 119.34L425.87 119.34L425.87 120.34L383.11 120.34z" fill="#037b0b"></path><path d="M1426.64 364.49L1439.08 364.49L1439.08 376.93L1426.64 376.93z" stroke="#d3b714"></path></g><defs><mask id="SvgjsMask1005"><rect width="1440" height="560" fill="#ffffff"></rect></mask></defs></svg>